# xmcd
#
# Track frame offsets:
#	150
#	9456
#	22806
#	36142
#	51024
#	61956
#	73983
#	86624
#	97383
#	110820
#	122331
#	138006
#	151913
#	162563
#	173946
#	180689
#	190083
#	208560
#
# Disc length: 2921 seconds
#
# Revision: 1
# Processed by: cddbd v1.5.2PL0 Copyright (c) Steve Scherf et al.
# Submitted via: audiograbber 1.83.01
#
DISCID=f40b6712
DTITLE=Verschiedene Interpreten - I았e Love And Lost Again
DYEAR=2007
DGENRE=Country
TTITLE0=Mickey Gilley - Suzie Q
TTITLE1=Billie Jo Spears - Fever
TTITLE2=Donna Fargo - Somebody Special
TTITLE3=Holly Dunn - Heart Full Of Love
TTITLE4=Patsy Cline - I Can See An Angel
TTITLE5=Mo Bandy - Let압 Get Over Then Together
TTITLE6=Lynn Anderson - I Fall To Pieces
TTITLE7=Sandy Posey - Single Girl
TTITLE8=T Graham Brown - I Wish I Could HurtThat Way Again
TTITLE9=Burl Ives - Raisdrops Keep Falling On My Mind
TTITLE10=Kenny Rogers - Tulsa Turnaround
TTITLE11=Lacy J Dalton - Whisper
TTITLE12=Patsy Cline - I았e Loved And Lost Again
TTITLE13=Kitty Wells - Heartbreak USA
TTITLE14=Waylon Jennings - It압 So Easy
TTITLE15=Jack Green - Wish I Didn앖 Have To Miss You
TTITLE16=Juice Newton - Sweetest Thing
TTITLE17=Kenny Rogers - She Even Woke Me Up To Say Goodbye
EXTD=
EXTT0=
EXTT1=
EXTT2=
EXTT3=
EXTT4=
EXTT5=
EXTT6=
EXTT7=
EXTT8=
EXTT9=
EXTT10=
EXTT11=
EXTT12=
EXTT13=
EXTT14=
EXTT15=
EXTT16=
EXTT17=
PLAYORDER=
